<svg width="20" height="20" viewBox="0 0 20 20" fill="none" xmlns="http://www.w3.org/2000/svg">
<g clip-path="url(#clip0_3112_673)">
<path d="M19.62 11.655V9.79308C19.62 9.01186 19.617 7.6194 19.6051 7H1.00936C0.997326 7.6194 1.00033 9.01186 1.00033 9.79308V11.655C1.00033 15.166 1.00033 16.9214 2.09109 18.0122C3.18177 19.1029 4.93729 19.1029 8.44818 19.1029H12.1722C15.6831 19.1029 17.4387 19.1029 18.5293 18.0122C19.62 16.9214 19.62 15.166 19.62 11.655Z" fill="#9282FA" fill-opacity="0.4"/>
<path d="M5.28965 0.690186C5.67678 0.690186 5.99067 0.991969 5.99067 1.36429V2.72421C6.61245 2.71266 7.30943 2.71266 8.09366 2.71266H11.8325C12.6166 2.71266 13.3136 2.71266 13.9354 2.72421V1.36429C13.9354 0.991969 14.2493 0.690186 14.6365 0.690186C15.0236 0.690186 15.3375 0.991969 15.3375 1.36429V2.78391C16.6828 2.88746 17.5659 3.14174 18.2148 3.76573C18.8636 4.38972 19.1281 5.2391 19.2358 6.53284L19.31 7.20703H0.690308V6.53284C0.798053 5.2391 1.06247 4.38972 1.71132 3.76573C2.36017 3.14174 3.24335 2.88746 4.58863 2.78391V1.36429C4.58863 0.991969 4.90253 0.690186 5.28965 0.690186Z" fill="#9282FA"/>
</g>
<defs>
<clipPath id="clip0_3112_673">
<rect width="20" height="20" fill="white"/>
</clipPath>
</defs>
</svg>
